<svg xmlns="http://www.w3.org/2000/svg" width="1200" height="630" viewBox="0 0 1200 630">
  <defs>
    <style>
      .title { font: 800 84px -apple-system, "Segoe UI", Helvetica, Arial, sans-serif; fill: #1a1a1a; letter-spacing: -2px; }
      .sub   { font: 400 34px -apple-system, "Segoe UI", Helvetica, Arial, sans-serif; fill: #5b6770; }
      .cat   { font: 700 26px -apple-system, "Segoe UI", Helvetica, Arial, sans-serif; fill: #1a1a1a; }
      .url   { font: 600 26px -apple-system, "Segoe UI", Helvetica, Arial, sans-serif; fill: #0f766e; }
    </style>
  </defs>

  <rect width="1200" height="630" fill="#ffffff"/>
  <rect width="1200" height="14" fill="#0f766e"/>

  <!-- Pin badge -->
  <g transform="translate(96 74)">
    <rect width="88" height="88" rx="21" fill="#0f766e"/>
    <path fill="#ffffff" d="M44 19c-10.7 0-19.4 8.7-19.4 19.4 0 13.9 19.4 36.1 19.4 36.1s19.4-22.2 19.4-36.1C63.4 27.7 54.7 19 44 19zm0 26.4a7 7 0 1 1 0-14 7 7 0 0 1 0 14z"/>
  </g>

  <text class="title" x="96" y="266">The Melsom Guide</text>
  <text class="title" x="96" y="352">to Raleigh</text>
  <rect x="100" y="388" width="72" height="6" rx="3" fill="#0f766e"/>
  <text class="sub" x="96" y="450">Our favorite restaurants, coffee, bakeries &amp; attractions</text>
  <text class="sub" x="96" y="494">around Raleigh &amp; Cary, NC.</text>

  <!-- Category legend -->
  <g transform="translate(96 562)">
    <circle cx="11" cy="-9" r="11" fill="#e74c3c"/>
    <text class="cat" x="32" y="0">Restaurants</text>

    <circle cx="231" cy="-9" r="11" fill="#795548"/>
    <text class="cat" x="252" y="0">Coffee</text>

    <circle cx="381" cy="-9" r="11" fill="#d97706"/>
    <text class="cat" x="402" y="0">Bakeries</text>

    <circle cx="551" cy="-9" r="11" fill="#db2777"/>
    <text class="cat" x="572" y="0">Ice Cream</text>

    <circle cx="751" cy="-9" r="11" fill="#2563eb"/>
    <text class="cat" x="772" y="0">Attractions</text>
  </g>

  <text class="url" x="1104" y="602" text-anchor="end">stephenmelsom.github.io/raleigh-ttd</text>
</svg>
